<svg xmlns="http://www.w3.org/2000/svg" xmlns:xlink="http://www.w3.org/1999/xlink" width="500" zoomAndPan="magnify" viewBox="0 0 375 374.999991" height="500" preserveAspectRatio="xMidYMid meet" version="1.0"><defs><g/><clipPath id="574c68bf11"><path d="M 61 152.007812 L 129.910156 152.007812 L 129.910156 170 L 61 170 Z M 61 152.007812 " clip-rule="nonzero"/></clipPath><clipPath id="427adf6d2a"><path d="M 80 172 L 129.910156 172 L 129.910156 189 L 80 189 Z M 80 172 " clip-rule="nonzero"/></clipPath><clipPath id="e49eadd045"><path d="M 46.660156 184 L 129.910156 184 L 129.910156 203 L 46.660156 203 Z M 46.660156 184 " clip-rule="nonzero"/></clipPath><clipPath id="9941621351"><path d="M 65 205 L 129.910156 205 L 129.910156 223.257812 L 65 223.257812 Z M 65 205 " clip-rule="nonzero"/></clipPath></defs><rect x="-37.5" width="450" fill="#ffffff" y="-37.499999" height="449.999989" fill-opacity="1"/><rect x="-37.5" width="450" fill="#ffffff" y="-37.499999" height="449.999989" fill-opacity="1"/><rect x="-37.5" width="450" fill="#fdfdfd" y="-37.499999" height="449.999989" fill-opacity="1"/><g clip-path="url(#574c68bf11)"><path fill="#000000" d="M 69.378906 167.628906 C 73.292969 167.628906 76.515625 164.707031 77.039062 160.910156 L 90.265625 160.910156 L 95.925781 169.113281 C 96.140625 169.417969 96.445312 169.546875 96.792969 169.546875 L 128.867188 169.546875 C 129.433594 169.546875 129.910156 169.070312 129.910156 168.5 C 129.910156 167.933594 129.433594 167.453125 128.867188 167.453125 L 97.316406 167.453125 L 91.660156 159.253906 C 91.441406 158.945312 91.136719 158.816406 90.789062 158.816406 L 76.992188 158.816406 C 76.472656 155.019531 73.25 152.097656 69.335938 152.097656 C 65.070312 152.097656 61.589844 155.585938 61.589844 159.863281 C 61.589844 164.136719 65.113281 167.628906 69.378906 167.628906 Z M 69.378906 154.234375 C 72.46875 154.234375 74.992188 156.765625 74.992188 159.863281 C 74.992188 162.960938 72.46875 165.492188 69.378906 165.492188 C 66.289062 165.492188 63.765625 162.960938 63.765625 159.863281 C 63.765625 156.765625 66.246094 154.234375 69.378906 154.234375 Z M 69.378906 154.234375 " fill-opacity="1" fill-rule="nonzero"/></g><g clip-path="url(#427adf6d2a)"><path fill="#000000" d="M 128.867188 179.582031 L 95.488281 179.582031 C 94.964844 175.785156 91.746094 172.863281 87.828125 172.863281 C 83.566406 172.863281 80.082031 176.355469 80.082031 180.628906 C 80.082031 184.90625 83.566406 188.394531 87.828125 188.394531 C 91.746094 188.394531 94.964844 185.472656 95.488281 181.675781 L 128.867188 181.675781 C 129.433594 181.675781 129.910156 181.195312 129.910156 180.628906 C 129.910156 180.0625 129.433594 179.582031 128.867188 179.582031 Z M 87.828125 186.300781 C 84.738281 186.300781 82.214844 183.769531 82.214844 180.671875 C 82.214844 177.574219 84.738281 175 87.828125 175 C 90.917969 175 93.445312 177.53125 93.445312 180.628906 C 93.445312 183.769531 90.917969 186.300781 87.828125 186.300781 Z M 87.828125 186.300781 " fill-opacity="1" fill-rule="nonzero"/></g><g clip-path="url(#e49eadd045)"><path fill="#000000" d="M 128.867188 193.019531 L 99.753906 193.019531 C 99.40625 193.019531 99.058594 193.195312 98.839844 193.5 L 94.75 200.042969 L 76.820312 200.042969 L 72.382812 191.753906 C 72.207031 191.40625 71.859375 191.1875 71.46875 191.1875 L 62.066406 191.1875 C 61.542969 187.390625 58.324219 184.46875 54.40625 184.46875 C 50.144531 184.46875 46.660156 187.960938 46.660156 192.234375 C 46.660156 196.511719 50.144531 200 54.40625 200 C 58.324219 200 61.542969 197.078125 62.066406 193.28125 L 70.8125 193.28125 L 75.253906 201.570312 C 75.425781 201.921875 75.773438 202.136719 76.167969 202.136719 L 95.316406 202.136719 C 95.664062 202.136719 96.011719 201.964844 96.230469 201.660156 L 100.320312 195.113281 L 128.824219 195.113281 C 129.390625 195.113281 129.867188 194.632812 129.867188 194.066406 C 129.910156 193.5 129.433594 193.019531 128.867188 193.019531 Z M 54.40625 197.949219 C 51.316406 197.949219 48.792969 195.417969 48.792969 192.320312 C 48.792969 189.222656 51.316406 186.695312 54.40625 186.695312 C 57.496094 186.695312 60.023438 189.222656 60.023438 192.320312 C 60.066406 195.417969 57.542969 197.949219 54.40625 197.949219 Z M 54.40625 197.949219 " fill-opacity="1" fill-rule="nonzero"/></g><g clip-path="url(#9941621351)"><path fill="#000000" d="M 128.867188 205.367188 L 112.070312 205.367188 C 111.675781 205.367188 111.328125 205.585938 111.15625 205.890625 L 106.195312 214.355469 L 80.867188 214.355469 C 80.34375 210.558594 77.125 207.636719 73.207031 207.636719 C 68.941406 207.636719 65.460938 211.125 65.460938 215.402344 C 65.460938 219.675781 68.941406 223.167969 73.207031 223.167969 C 77.125 223.167969 80.34375 220.242188 80.867188 216.449219 L 106.804688 216.449219 C 107.195312 216.449219 107.542969 216.230469 107.71875 215.925781 L 112.679688 207.460938 L 128.867188 207.460938 C 129.433594 207.460938 129.910156 206.980469 129.910156 206.414062 C 129.910156 205.847656 129.433594 205.367188 128.867188 205.367188 Z M 73.207031 221.074219 C 70.117188 221.074219 67.59375 218.542969 67.59375 215.445312 C 67.59375 212.347656 70.117188 209.816406 73.207031 209.816406 C 76.296875 209.816406 78.820312 212.347656 78.820312 215.445312 C 78.863281 218.542969 76.339844 221.074219 73.207031 221.074219 Z M 73.207031 221.074219 " fill-opacity="1" fill-rule="nonzero"/></g><g fill="#000000" fill-opacity="1"><g transform="translate(137.811324, 192.260668)"><g><path d="M 14.820312 -12.949219 L 6.921875 -12.949219 C 6.527344 -12.949219 6.027344 -13.109375 6.027344 -14.398438 L 6.027344 -16.347656 C 6.027344 -16.820312 6.105469 -17.1875 6.238281 -17.453125 C 6.34375 -17.609375 6.5 -17.792969 6.949219 -17.792969 L 17.664062 -17.792969 C 17.875 -17.792969 18.398438 -17.875 18.398438 -18.6875 L 18.398438 -20.796875 C 18.398438 -21.609375 17.875 -21.691406 17.664062 -21.691406 L 6.316406 -21.691406 C 4.871094 -21.691406 3.816406 -21.214844 3.132812 -20.242188 C 2.449219 -19.292969 2.105469 -18.03125 2.105469 -16.503906 L 2.105469 -14.503906 C 2.105469 -12.6875 2.472656 -11.214844 3.132812 -10.292969 C 3.949219 -9.214844 5.160156 -9.054688 6.265625 -9.054688 L 14.160156 -9.054688 C 14.554688 -9.054688 15.082031 -8.898438 15.082031 -7.605469 L 15.082031 -5.34375 C 15.082031 -4.871094 15.003906 -4.5 14.847656 -4.238281 C 14.742188 -4.078125 14.582031 -3.894531 14.136719 -3.894531 L 2.894531 -3.894531 C 2.660156 -3.894531 2.132812 -3.816406 2.132812 -3 L 2.132812 -0.894531 C 2.132812 -0.078125 2.660156 0 2.894531 0 L 14.765625 0 C 16.214844 0 17.292969 -0.5 17.976562 -1.472656 C 18.636719 -2.421875 18.980469 -3.660156 18.980469 -5.1875 L 18.980469 -7.503906 C 18.980469 -9.214844 18.636719 -10.554688 17.953125 -11.503906 C 17.242188 -12.449219 16.1875 -12.949219 14.820312 -12.949219 Z M 14.820312 -12.949219 "/></g></g></g><g fill="#000000" fill-opacity="1"><g transform="translate(160.211256, 192.260668)"><g><path d="M 16.214844 -19.242188 C 16.164062 -19.375 16.109375 -19.53125 16.058594 -19.636719 C 15.636719 -21.003906 14.371094 -21.980469 12.925781 -21.980469 C 12.265625 -21.980469 11.632812 -21.796875 11.109375 -21.425781 C 10.949219 -21.347656 10.820312 -21.242188 10.714844 -21.164062 C 10.320312 -20.820312 9.921875 -20.191406 9.554688 -19.242188 L 2.210938 -1 C 2.132812 -0.761719 2.105469 -0.527344 2.160156 -0.367188 C 2.183594 -0.210938 2.316406 0.0273438 2.738281 0.0273438 L 5.632812 0.0273438 C 5.976562 0.0273438 6.238281 -0.183594 6.371094 -0.527344 L 7.871094 -4.289062 L 13.636719 -4.289062 C 13.925781 -4.289062 14.1875 -4.421875 14.320312 -4.660156 C 14.476562 -4.871094 14.503906 -5.160156 14.425781 -5.421875 L 13.476562 -7.765625 C 13.34375 -8.082031 13.054688 -8.292969 12.714844 -8.292969 L 9.449219 -8.292969 L 12.820312 -16.820312 C 12.84375 -16.871094 12.871094 -16.898438 12.871094 -16.898438 L 12.976562 -16.898438 C 12.976562 -16.898438 12.976562 -16.898438 13.003906 -16.847656 L 19.53125 -0.554688 C 19.664062 -0.183594 19.925781 0.0273438 20.292969 0.0273438 L 23.113281 0.0273438 C 23.53125 0.0273438 23.636719 -0.238281 23.691406 -0.367188 C 23.742188 -0.527344 23.71875 -0.761719 23.613281 -1 Z M 16.214844 -19.242188 "/></g></g></g><g fill="#000000" fill-opacity="1"><g transform="translate(187.375467, 192.260668)"><g><path d="M 17.953125 -21.691406 L 2.816406 -21.691406 C 2.605469 -21.691406 2.105469 -21.585938 2.105469 -20.742188 L 2.105469 -18.714844 C 2.105469 -17.898438 2.605469 -17.792969 2.816406 -17.792969 L 17.953125 -17.792969 C 18.164062 -17.792969 18.6875 -17.875 18.6875 -18.6875 L 18.6875 -20.769531 C 18.6875 -21.609375 18.164062 -21.691406 17.953125 -21.691406 Z M 17.820312 -12.871094 L 4.238281 -12.84375 C 3.472656 -12.792969 2.816406 -12.371094 2.421875 -11.738281 C 2.316406 -11.53125 2.210938 -11.292969 2.160156 -11.054688 L 2.105469 -0.894531 C 2.105469 -0.078125 2.632812 0.0273438 2.84375 0.0273438 L 5.265625 0.0273438 C 5.476562 0.0273438 6 -0.078125 6 -0.894531 C 6 -0.894531 6.027344 -8.976562 6.054688 -8.976562 L 17.820312 -8.976562 C 18.03125 -8.976562 18.558594 -9.054688 18.558594 -9.871094 L 18.558594 -11.949219 C 18.558594 -12.765625 18.03125 -12.871094 17.820312 -12.871094 Z M 17.820312 -12.871094 "/></g></g></g><g fill="#000000" fill-opacity="1"><g transform="translate(209.485872, 192.260668)"><g><path d="M 17.925781 -4.710938 L 8.660156 -4.710938 C 8.105469 -4.710938 7.660156 -4.789062 7.292969 -4.894531 C 6.949219 -5.027344 6.710938 -5.210938 6.5 -5.476562 C 6.292969 -5.765625 6.132812 -6.160156 6.054688 -6.660156 C 6.027344 -6.792969 6.027344 -6.976562 6 -7.105469 C 6 -7.105469 6.027344 -9.003906 6.054688 -9.003906 L 17.820312 -9.003906 C 18.03125 -9.003906 18.558594 -9.109375 18.558594 -9.921875 L 18.558594 -12.003906 C 18.558594 -12.820312 18.03125 -12.898438 17.820312 -12.898438 L 4.238281 -12.871094 C 3.472656 -12.820312 2.816406 -12.425781 2.449219 -11.765625 C 2.316406 -11.554688 2.210938 -11.34375 2.160156 -11.109375 L 2.105469 -7.792969 L 2.105469 -7.660156 C 2.132812 -6.421875 2.265625 -5.371094 2.449219 -4.5 C 2.683594 -3.449219 3.078125 -2.578125 3.578125 -1.921875 C 4.105469 -1.238281 4.789062 -0.761719 5.632812 -0.472656 C 6.449219 -0.15625 7.421875 -0.0273438 8.582031 -0.0273438 L 17.925781 -0.0273438 C 18.164062 -0.0273438 18.6875 -0.105469 18.6875 -0.921875 L 18.6875 -3.816406 C 18.6875 -4.632812 18.164062 -4.710938 17.925781 -4.710938 Z M 17.953125 -21.742188 L 2.816406 -21.742188 C 2.605469 -21.742188 2.105469 -21.636719 2.105469 -20.796875 L 2.105469 -18.742188 C 2.105469 -17.925781 2.605469 -17.847656 2.816406 -17.847656 L 17.953125 -17.820312 C 18.164062 -17.820312 18.6875 -17.925781 18.6875 -18.742188 L 18.6875 -20.820312 C 18.6875 -21.636719 18.164062 -21.742188 17.953125 -21.742188 Z M 17.953125 -21.742188 "/></g></g></g><g fill="#000000" fill-opacity="1"><g transform="translate(231.596277, 192.260668)"><g><path d="M 19.109375 -21.691406 L 16.6875 -21.691406 C 16.476562 -21.691406 15.976562 -21.585938 15.976562 -20.769531 L 15.976562 -12.898438 L 6 -12.898438 L 6 -20.769531 C 6 -21.585938 5.5 -21.691406 5.265625 -21.691406 L 2.871094 -21.691406 C 2.632812 -21.691406 2.105469 -21.585938 2.105469 -20.769531 L 2.105469 -0.894531 C 2.105469 -0.078125 2.632812 0.0273438 2.871094 0.0273438 L 5.265625 0.0273438 C 5.5 0.0273438 6 -0.078125 6 -0.894531 L 6 -9.003906 L 15.976562 -9.003906 L 15.976562 -0.894531 C 15.976562 -0.078125 16.476562 0.0273438 16.6875 0.0273438 L 19.109375 0.0273438 C 19.347656 0.0273438 19.875 -0.078125 19.875 -0.894531 L 19.875 -20.769531 C 19.875 -21.585938 19.347656 -21.691406 19.109375 -21.691406 Z M 19.109375 -21.691406 "/></g></g></g><g fill="#000000" fill-opacity="1"><g transform="translate(254.891155, 192.260668)"><g><path d="M 16.214844 -19.242188 C 16.164062 -19.375 16.109375 -19.53125 16.058594 -19.636719 C 15.636719 -21.003906 14.371094 -21.980469 12.925781 -21.980469 C 12.265625 -21.980469 11.632812 -21.796875 11.109375 -21.425781 C 10.949219 -21.347656 10.820312 -21.242188 10.714844 -21.164062 C 10.320312 -20.820312 9.921875 -20.191406 9.554688 -19.242188 L 2.210938 -1 C 2.132812 -0.761719 2.105469 -0.527344 2.160156 -0.367188 C 2.183594 -0.210938 2.316406 0.0273438 2.738281 0.0273438 L 5.632812 0.0273438 C 5.976562 0.0273438 6.238281 -0.183594 6.371094 -0.527344 L 7.871094 -4.289062 L 13.636719 -4.289062 C 13.925781 -4.289062 14.1875 -4.421875 14.320312 -4.660156 C 14.476562 -4.871094 14.503906 -5.160156 14.425781 -5.421875 L 13.476562 -7.765625 C 13.34375 -8.082031 13.054688 -8.292969 12.714844 -8.292969 L 9.449219 -8.292969 L 12.820312 -16.820312 C 12.84375 -16.871094 12.871094 -16.898438 12.871094 -16.898438 L 12.976562 -16.898438 C 12.976562 -16.898438 12.976562 -16.898438 13.003906 -16.847656 L 19.53125 -0.554688 C 19.664062 -0.183594 19.925781 0.0273438 20.292969 0.0273438 L 23.113281 0.0273438 C 23.53125 0.0273438 23.636719 -0.238281 23.691406 -0.367188 C 23.742188 -0.527344 23.71875 -0.761719 23.613281 -1 Z M 16.214844 -19.242188 "/></g></g></g><g fill="#000000" fill-opacity="1"><g transform="translate(282.055366, 192.260668)"><g><path d="M 20.292969 -21.691406 L 17.875 -21.691406 C 17.636719 -21.691406 17.136719 -21.609375 17.136719 -20.796875 L 17.136719 -7.816406 C 17.136719 -7.027344 17.082031 -6.34375 17.003906 -5.84375 C 16.925781 -5.34375 16.769531 -4.949219 16.582031 -4.660156 C 16.371094 -4.394531 16.136719 -4.210938 15.792969 -4.078125 C 15.453125 -3.976562 14.976562 -3.894531 14.425781 -3.894531 L 8.738281 -3.894531 C 8.1875 -3.894531 7.710938 -3.976562 7.371094 -4.078125 C 7.027344 -4.210938 6.792969 -4.394531 6.582031 -4.660156 C 6.394531 -4.949219 6.238281 -5.34375 6.132812 -5.84375 C 6.054688 -6.34375 6 -7.027344 6 -7.816406 L 6 -20.796875 C 6 -21.609375 5.5 -21.691406 5.265625 -21.691406 L 2.871094 -21.691406 C 2.632812 -21.691406 2.105469 -21.609375 2.105469 -20.796875 L 2.105469 -8.238281 C 2.105469 -6.765625 2.210938 -5.5 2.449219 -4.476562 C 2.683594 -3.421875 3.078125 -2.554688 3.605469 -1.894531 C 4.105469 -1.210938 4.816406 -0.738281 5.632812 -0.421875 C 6.449219 -0.132812 7.449219 0 8.609375 0 L 14.53125 0 C 15.6875 0 16.6875 -0.132812 17.503906 -0.421875 C 18.347656 -0.738281 19.03125 -1.210938 19.558594 -1.894531 C 20.085938 -2.554688 20.453125 -3.421875 20.691406 -4.476562 C 20.925781 -5.5 21.03125 -6.765625 21.03125 -8.238281 L 21.03125 -20.796875 C 21.03125 -21.609375 20.53125 -21.691406 20.292969 -21.691406 Z M 20.292969 -21.691406 "/></g></g></g><g fill="#000000" fill-opacity="1"><g transform="translate(306.508415, 192.260668)"><g><path d="M 17.292969 -3.894531 L 8.738281 -3.894531 C 8.1875 -3.894531 7.738281 -3.949219 7.371094 -4.078125 C 7.054688 -4.183594 6.792969 -4.371094 6.605469 -4.660156 C 6.394531 -4.949219 6.238281 -5.34375 6.160156 -5.816406 C 6.054688 -6.34375 6.027344 -7 6.027344 -7.792969 L 6.027344 -20.769531 C 6.027344 -21.609375 5.5 -21.691406 5.289062 -21.691406 L 2.871094 -21.691406 C 2.632812 -21.691406 2.105469 -21.609375 2.105469 -20.769531 L 2.105469 -8.238281 C 2.105469 -6.765625 2.238281 -5.5 2.472656 -4.476562 C 2.710938 -3.421875 3.078125 -2.554688 3.605469 -1.894531 C 4.132812 -1.210938 4.816406 -0.710938 5.660156 -0.421875 C 6.449219 -0.132812 7.449219 0.0273438 8.609375 0.0273438 L 17.292969 0.0273438 C 17.53125 0.0273438 18.03125 -0.078125 18.03125 -0.894531 L 18.03125 -2.972656 C 18.03125 -3.789062 17.53125 -3.894531 17.292969 -3.894531 Z M 17.292969 -3.894531 "/></g></g></g><g fill="#0e1319" fill-opacity="1"><g transform="translate(137.811324, 209.833039)"><g><path d="M 11.089844 -11.851562 L 1.566406 -11.851562 C 1.4375 -11.851562 1.152344 -11.808594 1.152344 -11.363281 L 1.152344 -10.242188 C 1.152344 -9.765625 1.4375 -9.722656 1.566406 -9.722656 L 5.265625 -9.722656 L 5.265625 -0.488281 C 5.265625 -0.0429688 5.550781 0 5.667969 0 L 6.988281 0 C 7.121094 0 7.394531 -0.0429688 7.394531 -0.488281 L 7.394531 -9.722656 L 11.089844 -9.722656 C 11.21875 -9.722656 11.507812 -9.765625 11.507812 -10.242188 L 11.507812 -11.363281 C 11.507812 -11.808594 11.21875 -11.851562 11.089844 -11.851562 Z M 11.089844 -11.851562 "/></g></g></g><g fill="#0e1319" fill-opacity="1"><g transform="translate(151.187594, 209.833039)"><g><path d="M 9.792969 -2.574219 L 4.730469 -2.574219 C 4.429688 -2.574219 4.183594 -2.617188 3.984375 -2.675781 C 3.796875 -2.746094 3.667969 -2.847656 3.550781 -2.992188 C 3.4375 -3.148438 3.351562 -3.367188 3.308594 -3.640625 C 3.292969 -3.710938 3.292969 -3.8125 3.28125 -3.882812 C 3.28125 -3.882812 3.292969 -4.917969 3.308594 -4.917969 L 9.738281 -4.917969 C 9.851562 -4.917969 10.140625 -4.976562 10.140625 -5.421875 L 10.140625 -6.558594 C 10.140625 -7.003906 9.851562 -7.046875 9.738281 -7.046875 L 2.316406 -7.035156 C 1.898438 -7.003906 1.539062 -6.789062 1.335938 -6.429688 C 1.265625 -6.3125 1.207031 -6.199219 1.179688 -6.070312 L 1.152344 -4.257812 L 1.152344 -4.183594 C 1.164062 -3.507812 1.238281 -2.933594 1.335938 -2.460938 C 1.46875 -1.882812 1.683594 -1.410156 1.957031 -1.050781 C 2.242188 -0.675781 2.617188 -0.417969 3.078125 -0.257812 C 3.523438 -0.0859375 4.054688 -0.015625 4.6875 -0.015625 L 9.792969 -0.015625 C 9.925781 -0.015625 10.210938 -0.0585938 10.210938 -0.503906 L 10.210938 -2.085938 C 10.210938 -2.53125 9.925781 -2.574219 9.792969 -2.574219 Z M 9.808594 -11.878906 L 1.539062 -11.878906 C 1.425781 -11.878906 1.152344 -11.824219 1.152344 -11.363281 L 1.152344 -10.242188 C 1.152344 -9.792969 1.425781 -9.75 1.539062 -9.75 L 9.808594 -9.738281 C 9.925781 -9.738281 10.210938 -9.792969 10.210938 -10.242188 L 10.210938 -11.375 C 10.210938 -11.824219 9.925781 -11.878906 9.808594 -11.878906 Z M 9.808594 -11.878906 "/></g></g></g><g fill="#0e1319" fill-opacity="1"><g transform="translate(163.269393, 209.833039)"><g><path d="M 9.9375 -11.851562 L 4.703125 -11.851562 C 4.070312 -11.851562 3.523438 -11.765625 3.078125 -11.605469 C 2.617188 -11.433594 2.242188 -11.160156 1.96875 -10.800781 C 1.683594 -10.441406 1.46875 -9.96875 1.335938 -9.390625 C 1.207031 -8.832031 1.152344 -8.140625 1.152344 -7.351562 L 1.152344 -4.5 C 1.152344 -3.695312 1.207031 -3.007812 1.335938 -2.429688 C 1.46875 -1.871094 1.683594 -1.394531 1.96875 -1.019531 C 2.257812 -0.660156 2.632812 -0.386719 3.078125 -0.230469 C 3.523438 -0.0703125 4.070312 0.015625 4.703125 0.015625 L 9.9375 0.015625 C 10.054688 0.015625 10.339844 -0.0429688 10.339844 -0.488281 L 10.339844 -1.625 C 10.339844 -2.070312 10.054688 -2.128906 9.9375 -2.128906 L 4.773438 -2.128906 C 4.472656 -2.128906 4.214844 -2.15625 4.027344 -2.230469 C 3.839844 -2.285156 3.710938 -2.386719 3.597656 -2.546875 C 3.480469 -2.691406 3.410156 -2.90625 3.351562 -3.179688 C 3.308594 -3.464844 3.28125 -3.824219 3.28125 -4.257812 L 3.28125 -7.609375 C 3.28125 -8.039062 3.308594 -8.398438 3.351562 -8.671875 C 3.410156 -8.945312 3.480469 -9.148438 3.597656 -9.304688 C 3.710938 -9.464844 3.839844 -9.566406 4.027344 -9.621094 C 4.214844 -9.695312 4.472656 -9.722656 4.773438 -9.722656 L 9.9375 -9.722656 C 10.054688 -9.722656 10.339844 -9.78125 10.339844 -10.242188 L 10.339844 -11.347656 C 10.339844 -11.792969 10.054688 -11.851562 9.9375 -11.851562 Z M 9.9375 -11.851562 "/></g></g></g><g fill="#0e1319" fill-opacity="1"><g transform="translate(175.480623, 209.833039)"><g><path d="M 10.441406 -11.851562 L 9.117188 -11.851562 C 9.003906 -11.851562 8.730469 -11.792969 8.730469 -11.347656 L 8.730469 -7.046875 L 3.28125 -7.046875 L 3.28125 -11.347656 C 3.28125 -11.792969 3.007812 -11.851562 2.875 -11.851562 L 1.566406 -11.851562 C 1.4375 -11.851562 1.152344 -11.792969 1.152344 -11.347656 L 1.152344 -0.488281 C 1.152344 -0.0429688 1.4375 0.015625 1.566406 0.015625 L 2.875 0.015625 C 3.007812 0.015625 3.28125 -0.0429688 3.28125 -0.488281 L 3.28125 -4.917969 L 8.730469 -4.917969 L 8.730469 -0.488281 C 8.730469 -0.0429688 9.003906 0.015625 9.117188 0.015625 L 10.441406 0.015625 C 10.570312 0.015625 10.859375 -0.0429688 10.859375 -0.488281 L 10.859375 -11.347656 C 10.859375 -11.792969 10.570312 -11.851562 10.441406 -11.851562 Z M 10.441406 -11.851562 "/></g></g></g><g fill="#0e1319" fill-opacity="1"><g transform="translate(188.209648, 209.833039)"><g><path d="M 11.332031 -11.851562 L 10.054688 -11.851562 C 9.925781 -11.851562 9.652344 -11.808594 9.652344 -11.347656 L 9.652344 -2.703125 C 9.652344 -2.691406 9.652344 -2.691406 9.652344 -2.675781 L 9.578125 -2.675781 C 9.566406 -2.675781 9.550781 -2.675781 9.535156 -2.71875 L 4.992188 -10.800781 C 4.875 -11.015625 4.773438 -11.191406 4.675781 -11.320312 C 4.574219 -11.464844 4.472656 -11.578125 4.371094 -11.648438 C 4.257812 -11.738281 4.128906 -11.792969 3.96875 -11.824219 C 3.824219 -11.835938 3.652344 -11.851562 3.464844 -11.851562 L 2.386719 -11.851562 C 1.96875 -11.851562 1.652344 -11.707031 1.453125 -11.449219 C 1.25 -11.175781 1.152344 -10.699219 1.152344 -9.996094 L 1.152344 -0.488281 C 1.152344 -0.0429688 1.4375 0.015625 1.566406 0.015625 L 2.847656 0.015625 C 2.976562 0.015625 3.25 -0.0429688 3.25 -0.488281 L 3.25 -9.132812 C 3.25 -9.148438 3.25 -9.160156 3.25 -9.160156 L 3.324219 -9.160156 C 3.324219 -9.160156 3.335938 -9.160156 3.367188 -9.117188 L 7.925781 -1.035156 C 8.039062 -0.804688 8.15625 -0.632812 8.253906 -0.503906 C 8.355469 -0.359375 8.457031 -0.257812 8.570312 -0.1875 C 8.6875 -0.101562 8.816406 -0.0585938 8.960938 -0.0273438 C 9.089844 0 9.25 0.015625 9.449219 0.015625 L 10.5 0.015625 C 10.917969 0.015625 11.234375 -0.128906 11.433594 -0.402344 C 11.636719 -0.660156 11.738281 -1.136719 11.738281 -1.839844 L 11.738281 -11.347656 C 11.738281 -11.808594 11.449219 -11.851562 11.332031 -11.851562 Z M 11.332031 -11.851562 "/></g></g></g><g fill="#0e1319" fill-opacity="1"><g transform="translate(201.816047, 209.833039)"><g><path d="M 10.945312 -10.800781 C 10.65625 -11.160156 10.285156 -11.433594 9.824219 -11.605469 C 9.378906 -11.765625 8.832031 -11.851562 8.199219 -11.851562 L 4.6875 -11.851562 C 4.054688 -11.851562 3.523438 -11.765625 3.078125 -11.605469 C 2.617188 -11.433594 2.242188 -11.160156 1.957031 -10.800781 C 1.683594 -10.441406 1.46875 -9.96875 1.335938 -9.390625 C 1.207031 -8.832031 1.152344 -8.15625 1.152344 -7.351562 L 1.152344 -4.5 C 1.152344 -3.695312 1.207031 -3.007812 1.335938 -2.445312 C 1.46875 -1.871094 1.683594 -1.394531 1.957031 -1.035156 C 2.242188 -0.660156 2.617188 -0.386719 3.078125 -0.230469 C 3.507812 -0.0703125 4.054688 0.015625 4.6875 0.015625 L 8.199219 0.015625 C 8.832031 0.015625 9.378906 -0.0703125 9.824219 -0.230469 C 10.285156 -0.386719 10.65625 -0.660156 10.945312 -1.019531 C 11.234375 -1.394531 11.433594 -1.871094 11.5625 -2.445312 C 11.679688 -3.007812 11.75 -3.695312 11.75 -4.5 L 11.75 -7.351562 C 11.75 -8.140625 11.679688 -8.832031 11.5625 -9.390625 C 11.433594 -9.96875 11.234375 -10.441406 10.945312 -10.800781 Z M 9.609375 -7.59375 L 9.609375 -4.242188 C 9.609375 -3.824219 9.59375 -3.464844 9.535156 -3.179688 C 9.492188 -2.917969 9.40625 -2.691406 9.292969 -2.546875 C 9.191406 -2.386719 9.046875 -2.285156 8.859375 -2.230469 C 8.671875 -2.15625 8.429688 -2.128906 8.125 -2.128906 L 4.761719 -2.128906 C 4.457031 -2.128906 4.214844 -2.15625 4.027344 -2.230469 C 3.839844 -2.285156 3.695312 -2.386719 3.597656 -2.546875 C 3.480469 -2.691406 3.410156 -2.917969 3.351562 -3.179688 C 3.308594 -3.464844 3.28125 -3.824219 3.28125 -4.242188 L 3.28125 -7.59375 C 3.28125 -8.011719 3.308594 -8.371094 3.351562 -8.660156 C 3.410156 -8.933594 3.480469 -9.148438 3.597656 -9.304688 C 3.695312 -9.449219 3.839844 -9.550781 4.027344 -9.621094 C 4.214844 -9.679688 4.457031 -9.722656 4.761719 -9.722656 L 8.125 -9.722656 C 8.429688 -9.722656 8.671875 -9.679688 8.859375 -9.621094 C 9.046875 -9.550781 9.191406 -9.449219 9.292969 -9.304688 C 9.40625 -9.148438 9.492188 -8.933594 9.535156 -8.660156 C 9.59375 -8.371094 9.609375 -8.011719 9.609375 -7.59375 Z M 9.609375 -7.59375 "/></g></g></g><g fill="#0e1319" fill-opacity="1"><g transform="translate(215.436821, 209.833039)"><g><path d="M 9.449219 -2.128906 L 4.773438 -2.128906 C 4.472656 -2.128906 4.230469 -2.15625 4.027344 -2.230469 C 3.855469 -2.285156 3.710938 -2.386719 3.609375 -2.546875 C 3.496094 -2.703125 3.410156 -2.917969 3.367188 -3.179688 C 3.308594 -3.464844 3.292969 -3.824219 3.292969 -4.257812 L 3.292969 -11.347656 C 3.292969 -11.808594 3.007812 -11.851562 2.890625 -11.851562 L 1.566406 -11.851562 C 1.4375 -11.851562 1.152344 -11.808594 1.152344 -11.347656 L 1.152344 -4.5 C 1.152344 -3.695312 1.222656 -3.007812 1.351562 -2.445312 C 1.480469 -1.871094 1.683594 -1.394531 1.96875 -1.035156 C 2.257812 -0.660156 2.632812 -0.386719 3.09375 -0.230469 C 3.523438 -0.0703125 4.070312 0.015625 4.703125 0.015625 L 9.449219 0.015625 C 9.578125 0.015625 9.851562 -0.0429688 9.851562 -0.488281 L 9.851562 -1.625 C 9.851562 -2.070312 9.578125 -2.128906 9.449219 -2.128906 Z M 9.449219 -2.128906 "/></g></g></g><g fill="#0e1319" fill-opacity="1"><g transform="translate(227.159042, 209.833039)"><g><path d="M 10.945312 -10.800781 C 10.65625 -11.160156 10.285156 -11.433594 9.824219 -11.605469 C 9.378906 -11.765625 8.832031 -11.851562 8.199219 -11.851562 L 4.6875 -11.851562 C 4.054688 -11.851562 3.523438 -11.765625 3.078125 -11.605469 C 2.617188 -11.433594 2.242188 -11.160156 1.957031 -10.800781 C 1.683594 -10.441406 1.46875 -9.96875 1.335938 -9.390625 C 1.207031 -8.832031 1.152344 -8.15625 1.152344 -7.351562 L 1.152344 -4.5 C 1.152344 -3.695312 1.207031 -3.007812 1.335938 -2.445312 C 1.46875 -1.871094 1.683594 -1.394531 1.957031 -1.035156 C 2.242188 -0.660156 2.617188 -0.386719 3.078125 -0.230469 C 3.507812 -0.0703125 4.054688 0.015625 4.6875 0.015625 L 8.199219 0.015625 C 8.832031 0.015625 9.378906 -0.0703125 9.824219 -0.230469 C 10.285156 -0.386719 10.65625 -0.660156 10.945312 -1.019531 C 11.234375 -1.394531 11.433594 -1.871094 11.5625 -2.445312 C 11.679688 -3.007812 11.75 -3.695312 11.75 -4.5 L 11.75 -7.351562 C 11.75 -8.140625 11.679688 -8.832031 11.5625 -9.390625 C 11.433594 -9.96875 11.234375 -10.441406 10.945312 -10.800781 Z M 9.609375 -7.59375 L 9.609375 -4.242188 C 9.609375 -3.824219 9.59375 -3.464844 9.535156 -3.179688 C 9.492188 -2.917969 9.40625 -2.691406 9.292969 -2.546875 C 9.191406 -2.386719 9.046875 -2.285156 8.859375 -2.230469 C 8.671875 -2.15625 8.429688 -2.128906 8.125 -2.128906 L 4.761719 -2.128906 C 4.457031 -2.128906 4.214844 -2.15625 4.027344 -2.230469 C 3.839844 -2.285156 3.695312 -2.386719 3.597656 -2.546875 C 3.480469 -2.691406 3.410156 -2.917969 3.351562 -3.179688 C 3.308594 -3.464844 3.28125 -3.824219 3.28125 -4.242188 L 3.28125 -7.59375 C 3.28125 -8.011719 3.308594 -8.371094 3.351562 -8.660156 C 3.410156 -8.933594 3.480469 -9.148438 3.597656 -9.304688 C 3.695312 -9.449219 3.839844 -9.550781 4.027344 -9.621094 C 4.214844 -9.679688 4.457031 -9.722656 4.761719 -9.722656 L 8.125 -9.722656 C 8.429688 -9.722656 8.671875 -9.679688 8.859375 -9.621094 C 9.046875 -9.550781 9.191406 -9.449219 9.292969 -9.304688 C 9.40625 -9.148438 9.492188 -8.933594 9.535156 -8.660156 C 9.59375 -8.371094 9.609375 -8.011719 9.609375 -7.59375 Z M 9.609375 -7.59375 "/></g></g></g><g fill="#0e1319" fill-opacity="1"><g transform="translate(240.779816, 209.833039)"><g><path d="M 10.886719 -11.851562 L 4.703125 -11.851562 C 4.070312 -11.851562 3.523438 -11.765625 3.078125 -11.605469 C 2.632812 -11.433594 2.242188 -11.160156 1.96875 -10.800781 C 1.683594 -10.425781 1.46875 -9.96875 1.335938 -9.390625 C 1.207031 -8.832031 1.152344 -8.140625 1.152344 -7.351562 L 1.152344 -4.5 C 1.152344 -3.695312 1.207031 -3.007812 1.335938 -2.429688 C 1.46875 -1.871094 1.683594 -1.394531 1.96875 -1.019531 C 2.257812 -0.660156 2.632812 -0.386719 3.078125 -0.230469 C 3.523438 -0.0703125 4.070312 0.015625 4.703125 0.015625 L 9.621094 0.015625 C 10.15625 0.015625 10.570312 -0.203125 10.859375 -0.617188 C 11.132812 -1.019531 11.277344 -1.695312 11.277344 -2.660156 L 11.277344 -6.515625 C 11.277344 -7.0625 10.960938 -7.148438 10.773438 -7.148438 L 5.679688 -7.148438 C 5.566406 -7.148438 5.277344 -7.089844 5.277344 -6.628906 L 5.277344 -5.539062 C 5.277344 -5.0625 5.566406 -5.019531 5.679688 -5.019531 L 9.261719 -5.019531 C 9.261719 -5.019531 9.277344 -3.007812 9.277344 -3.007812 C 9.277344 -2.558594 9.207031 -2.375 9.148438 -2.285156 C 9.074219 -2.171875 8.960938 -2.128906 8.800781 -2.128906 L 4.773438 -2.128906 C 4.472656 -2.128906 4.214844 -2.15625 4.027344 -2.230469 C 3.839844 -2.285156 3.710938 -2.386719 3.597656 -2.546875 C 3.496094 -2.691406 3.410156 -2.90625 3.367188 -3.179688 C 3.308594 -3.464844 3.28125 -3.824219 3.28125 -4.257812 L 3.28125 -7.59375 C 3.28125 -8.027344 3.308594 -8.386719 3.367188 -8.671875 C 3.410156 -8.933594 3.496094 -9.148438 3.597656 -9.304688 C 3.710938 -9.449219 3.839844 -9.550781 4.027344 -9.621094 C 4.214844 -9.679688 4.472656 -9.722656 4.773438 -9.722656 L 10.886719 -9.722656 C 11.003906 -9.722656 11.289062 -9.765625 11.289062 -10.226562 L 11.289062 -11.347656 C 11.289062 -11.792969 11.003906 -11.851562 10.886719 -11.851562 Z M 10.886719 -11.851562 "/></g></g></g><g fill="#0e1319" fill-opacity="1"><g transform="translate(253.940331, 209.833039)"><g><path d="M 11.792969 -11.851562 L 10.199219 -11.851562 C 10.066406 -11.851562 9.894531 -11.808594 9.78125 -11.59375 L 6.617188 -5.824219 L 3.480469 -11.578125 C 3.367188 -11.808594 3.191406 -11.851562 3.0625 -11.851562 L 1.425781 -11.851562 C 1.292969 -11.851562 1.195312 -11.78125 1.164062 -11.648438 C 1.136719 -11.550781 1.152344 -11.433594 1.207031 -11.332031 L 5.523438 -3.640625 L 5.523438 -0.488281 C 5.523438 -0.0429688 5.8125 0 5.925781 0 L 7.25 0 C 7.363281 0 7.652344 -0.0429688 7.652344 -0.488281 L 7.652344 -3.640625 L 12.011719 -11.332031 C 12.066406 -11.433594 12.082031 -11.550781 12.054688 -11.664062 C 12.011719 -11.78125 11.910156 -11.851562 11.792969 -11.851562 Z M 11.792969 -11.851562 "/></g></g></g></svg>